<?xml version="1.0" encoding="UTF-8" standalone="no"?>
<!-- Created with Inkscape (http://www.inkscape.org/) -->

<svg
   xmlns:dc="http://purl.org/dc/elements/1.1/"
   xmlns:cc="http://creativecommons.org/ns#"
   xmlns:rdf="http://www.w3.org/1999/02/22-rdf-syntax-ns#"
   xmlns:svg="http://www.w3.org/2000/svg"
   xmlns="http://www.w3.org/2000/svg"
   xmlns:sodipodi="http://sodipodi.sourceforge.net/DTD/sodipodi-0.dtd"
   xmlns:inkscape="http://www.inkscape.org/namespaces/inkscape"
   width="107.259mm"
   height="107.259mm"
   viewBox="0 0 107.259 107.25899"
   version="1.1"
   id="svg8"
   inkscape:version="0.92.3 (2405546, 2018-03-11)"
   sodipodi:docname="ScopeMoving.svg">
  <defs
     id="defs2" />
  <sodipodi:namedview
     id="base"
     pagecolor="#ffffff"
     bordercolor="#666666"
     borderopacity="1.0"
     inkscape:pageopacity="0.0"
     inkscape:pageshadow="2"
     inkscape:zoom="2.8284271"
     inkscape:cx="188.84134"
     inkscape:cy="355.15811"
     inkscape:document-units="mm"
     inkscape:current-layer="svg8"
     showgrid="false"
     inkscape:window-width="1920"
     inkscape:window-height="1017"
     inkscape:window-x="3832"
     inkscape:window-y="-8"
     inkscape:window-maximized="1"
     units="mm"
     inkscape:snap-bbox="false"
     inkscape:snap-object-midpoints="false" />
  <metadata
     id="metadata5">
    <rdf:RDF>
      <cc:Work
         rdf:about="">
        <dc:format>image/svg+xml</dc:format>
        <dc:type
           rdf:resource="http://purl.org/dc/dcmitype/StillImage" />
        <dc:title></dc:title>
      </cc:Work>
    </rdf:RDF>
  </metadata>
  <path
     style="opacity:1;fill:#000000;fill-opacity:1;stroke:none;stroke-width:3.33848882;stroke-linecap:round;stroke-linejoin:round;stroke-miterlimit:4;stroke-dasharray:none;stroke-opacity:1;paint-order:markers stroke fill"
     d="M 53.6294,2.3e-4 A 53.62904,53.62904 0 0 0 0,53.62963 53.62904,53.62904 0 0 0 53.6294,107.259 53.62904,53.62904 0 0 0 107.2592,53.62963 53.62904,53.62904 0 0 0 53.6294,2.3e-4 Z m 0,1.78835 a 51.841408,51.841408 0 0 1 51.841,51.84105 51.841408,51.841408 0 0 1 -39.3272,50.25577 V 53.62963 H 64.3549 V 104.2862 A 51.841408,51.841408 0 0 1 53.6294,105.4707 51.841408,51.841408 0 0 1 41.116,103.87075 V 53.62963 h -1.7884 v 49.7867 A 51.841408,51.841408 0 0 1 1.7887,53.62963 51.841408,51.841408 0 0 1 53.6294,1.78858 Z"
     id="path4529"
     inkscape:connector-curvature="0" />
</svg>
