<?xml version="1.0" encoding="UTF-8" standalone="no"?>
<!-- Created with Inkscape (http://www.inkscape.org/) -->

<svg
   xmlns:dc="http://purl.org/dc/elements/1.1/"
   xmlns:cc="http://creativecommons.org/ns#"
   xmlns:rdf="http://www.w3.org/1999/02/22-rdf-syntax-ns#"
   xmlns:svg="http://www.w3.org/2000/svg"
   xmlns="http://www.w3.org/2000/svg"
   xmlns:sodipodi="http://sodipodi.sourceforge.net/DTD/sodipodi-0.dtd"
   xmlns:inkscape="http://www.inkscape.org/namespaces/inkscape"
   width="107.259mm"
   height="107.259mm"
   viewBox="0 0 107.259 107.25899"
   version="1.1"
   id="svg8"
   inkscape:version="0.92.3 (2405546, 2018-03-11)"
   sodipodi:docname="ScopeStatic.svg">
  <defs
     id="defs2" />
  <sodipodi:namedview
     id="base"
     pagecolor="#ffffff"
     bordercolor="#666666"
     borderopacity="1.0"
     inkscape:pageopacity="0.0"
     inkscape:pageshadow="2"
     inkscape:zoom="0.3535534"
     inkscape:cx="-147.36515"
     inkscape:cy="325.42571"
     inkscape:document-units="mm"
     inkscape:current-layer="svg8"
     showgrid="false"
     inkscape:window-width="1920"
     inkscape:window-height="1017"
     inkscape:window-x="1912"
     inkscape:window-y="-8"
     inkscape:window-maximized="1"
     units="mm"
     inkscape:snap-bbox="false"
     inkscape:snap-object-midpoints="true" />
  <metadata
     id="metadata5">
    <rdf:RDF>
      <cc:Work
         rdf:about="">
        <dc:format>image/svg+xml</dc:format>
        <dc:type
           rdf:resource="http://purl.org/dc/dcmitype/StillImage" />
        <dc:title />
      </cc:Work>
    </rdf:RDF>
  </metadata>
  <g
     id="g823">
    <path
       style="fill:#000000;fill-opacity:1;stroke-width:0.14011499"
       d="m 51.172269,107.1598 c 0.496168,-0.0888 0.451266,-0.10263 -0.391368,-0.12022 -2.387855,-0.0499 -7.109621,-0.75239 -10.117258,-1.50524 C 24.279588,101.43314 10.699471,89.723404 4.1998435,74.09267 2.0084521,68.822664 0.56427111,62.630774 0.27824058,57.278868 0.20750082,55.955312 0.15055102,55.555611 0.08857563,55.947776 0.03985533,56.256028 0,55.215675 0,53.635879 0,52.056082 0.0398765,51.015728 0.08857563,51.323981 0.15055102,51.716146 0.20750082,51.316445 0.27824058,49.992888 0.51838401,45.499593 1.6443525,40.080129 3.2719707,35.5836 7.1779302,24.792823 14.145453,15.864308 23.826176,9.2444577 31.349088,4.1001552 41.074467,0.77009458 49.98129,0.28869564 c 1.396986,-0.0755058 1.726695,-0.12479281 1.261036,-0.1885052 -0.346784,-0.04744933 0.725094,-0.0862667 2.381954,-0.0862667 1.656861,0 2.728739,0.03881737 2.381957,0.0862667 -0.465661,0.0637124 -0.135951,0.11299932 1.261035,0.1885052 2.128188,0.11502228 5.02024,0.51272292 7.439511,1.02304156 19.818957,4.1805953 35.830747,19.5484868 40.737837,39.0996298 0.85889,3.422073 1.53121,7.842961 1.58192,10.402028 0.0154,0.776268 0.0356,0.849457 0.12167,0.440528 0.0568,-0.269721 0.10257,0.802159 0.10178,2.381956 -10e-4,1.579796 -0.0413,2.620149 -0.09,2.311897 -0.062,-0.392165 -0.11892,0.0075 -0.18967,1.331092 -0.17368,3.249843 -0.88291,7.392264 -1.86729,10.906412 -4.05226,14.466155 -14.423127,26.87163 -28.009477,33.50452 -3.34879,1.63489 -6.961882,2.95672 -10.508625,3.84454 -3.047111,0.76274 -7.734691,1.45589 -10.187315,1.5064 -0.933009,0.0192 -0.967044,0.0296 -0.391366,0.11906 0.347058,0.054 -0.723777,0.0986 -2.381957,0.0992 -1.65686,5.3e-4 -2.760263,-0.044 -2.452011,-0.0992 z M 42.330032,83.679084 c 0.04676,-0.121897 0.08505,-1.445982 0.08505,-2.942416 0,-3.156202 0.164722,-2.79806 -1.791461,-3.89506 -5.239035,-2.937973 -9.487674,-7.748192 -11.674183,-13.217251 -5.703983,-14.26722 1.703494,-30.350944 16.212523,-35.20198 7.857175,-2.627015 16.369761,-1.501262 23.200241,3.068132 10.123893,6.772593 14.36758,19.387228 10.390409,30.88619 -2.146643,6.206467 -6.698205,11.566252 -12.447926,14.658317 -0.616507,0.331547 -1.199737,0.699926 -1.296065,0.818618 -0.126557,0.155947 -0.175145,0.963126 -0.175145,2.909814 0,1.481707 0.03829,2.793739 0.08505,2.915636 0.129829,0.33832 0.48697,0.2726 1.905308,-0.350607 3.711449,-1.630779 7.063639,-3.991379 10.075798,-7.095344 4.891761,-5.040868 7.83692,-11.014877 8.895368,-18.043517 0.344341,-2.286577 0.349966,-6.791871 0.01128,-9.037418 -0.858187,-5.690057 -2.882722,-10.557205 -6.294462,-15.132419 -1.275354,-1.710272 -4.561168,-4.996085 -6.271435,-6.271437 -4.544513,-3.388849 -9.542909,-5.4744 -15.069369,-6.287609 -2.293715,-0.337515 -6.815286,-0.340949 -9.030413,-0.0069 -4.778381,0.720689 -9.311869,2.406095 -13.093628,4.867797 -12.045027,7.84059 -17.544268,22.385254 -13.674461,36.166875 1.537924,5.477025 4.427589,10.311069 8.57338,14.342166 2.979465,2.897036 5.83027,4.86146 9.367465,6.45491 1.443386,0.650216 1.885084,0.736397 2.016676,0.39346 z m 15.665693,-8.739507 c 7.547251,-1.606583 13.591688,-6.951969 16.140152,-14.273517 0.523313,-1.503445 1.022395,-3.829822 1.072339,-4.998514 0.05654,-1.323232 0.354376,-1.201611 -2.837863,-1.158851 l -2.831634,0.03793 -0.247123,1.505325 C 68.415038,61.391375 65.170949,65.698476 60.281269,68.01474 56.762244,69.681716 52.2647,69.936099 48.592247,68.675869 44.698245,67.339615 41.411945,64.52632 39.562824,60.946077 38.733568,59.340483 38.259863,57.896873 37.95687,56.05195 l -0.247218,-1.505325 h -2.796513 -2.796508 l -0.04247,0.821133 c -0.02336,0.451623 0.08861,1.506337 0.248834,2.343808 1.749323,9.143409 9.20559,16.220091 18.428941,17.490743 1.602427,0.220762 5.664639,0.07342 7.243802,-0.262735 z m -1.032606,-9.382794 c 2.073113,-0.602585 3.990808,-1.761551 5.504251,-3.326505 1.469859,-1.519888 2.510387,-3.297911 3.076321,-5.25672 0.42617,-1.475056 0.523722,-4.164676 0.20783,-5.729921 -0.934874,-4.632246 -4.399714,-8.312866 -9.044713,-9.607989 -0.699644,-0.195074 -1.414139,-0.253934 -3.082528,-0.253934 -2.383167,0 -3.168756,0.147849 -4.974081,0.936131 -3.367421,1.470359 -6.000361,4.556484 -7.026146,8.235504 -0.396843,1.423295 -0.365619,4.886302 0.05723,6.346986 0.618859,2.137761 1.763543,4.045099 3.3486,5.579629 1.880153,1.820217 3.903423,2.855936 6.632787,3.395355 0.192662,0.03807 1.233016,0.04914 2.311899,0.02457 1.484343,-0.03378 2.211467,-0.117257 2.98855,-0.343128 z M 37.956966,51.219805 c 0.87543,-5.332572 4.126928,-9.649502 9.010328,-11.962791 3.519024,-1.666979 8.016569,-1.921359 11.68902,-0.66113 3.972961,1.363353 7.25359,4.210533 9.13233,7.925727 0.753051,1.489156 1.211307,2.921663 1.502941,4.698194 l 0.247118,1.505325 2.716438,0.03814 c 1.667076,0.0234 2.770263,-0.01569 2.855777,-0.101198 0.368833,-0.368838 -0.177463,-3.761253 -0.977345,-6.069146 -2.537958,-7.322732 -8.646043,-12.68353 -16.277427,-14.285981 -2.146049,-0.450631 -6.430209,-0.447869 -8.531769,0.0055 -5.748382,1.240101 -10.813747,4.696045 -13.885266,9.473492 -0.810679,1.260934 -2.001943,3.755691 -2.464669,5.161525 -0.483126,1.46781 -0.927868,3.838995 -0.927868,4.946981 v 0.906536 l 2.831635,-0.03793 2.831628,-0.03793 z"
       id="path825"
       inkscape:connector-curvature="0" />
  </g>
</svg>
