<?xml version="1.0" encoding="UTF-8" standalone="no"?>
<!-- Created with Inkscape (http://www.inkscape.org/) -->

<svg
   xmlns:dc="http://purl.org/dc/elements/1.1/"
   xmlns:cc="http://creativecommons.org/ns#"
   xmlns:rdf="http://www.w3.org/1999/02/22-rdf-syntax-ns#"
   xmlns:svg="http://www.w3.org/2000/svg"
   xmlns="http://www.w3.org/2000/svg"
   xmlns:sodipodi="http://sodipodi.sourceforge.net/DTD/sodipodi-0.dtd"
   xmlns:inkscape="http://www.inkscape.org/namespaces/inkscape"
   width="2502.49mm"
   height="865.383mm"
   viewBox="0 0 2502.49 865.38295"
   version="1.1"
   id="svg8"
   inkscape:version="0.92.3 (2405546, 2018-03-11)"
   sodipodi:docname="Shooting.svg">
  <defs
     id="defs2" />
  <sodipodi:namedview
     id="base"
     pagecolor="#ffffff"
     bordercolor="#666666"
     borderopacity="1.0"
     inkscape:pageopacity="0.0"
     inkscape:pageshadow="2"
     inkscape:zoom="0.125"
     inkscape:cx="4426.6854"
     inkscape:cy="1986.7112"
     inkscape:document-units="mm"
     inkscape:current-layer="svg8"
     showgrid="false"
     inkscape:window-width="1920"
     inkscape:window-height="1017"
     inkscape:window-x="1912"
     inkscape:window-y="-8"
     inkscape:window-maximized="1"
     units="mm"
     inkscape:snap-bbox="false"
     inkscape:snap-object-midpoints="false" />
  <metadata
     id="metadata5">
    <rdf:RDF>
      <cc:Work
         rdf:about="">
        <dc:format>image/svg+xml</dc:format>
        <dc:type
           rdf:resource="http://purl.org/dc/dcmitype/StillImage" />
        <dc:title />
      </cc:Work>
    </rdf:RDF>
  </metadata>
  <path
     style="opacity:1;fill:#88d5ac;fill-opacity:1;stroke:none;stroke-width:9.56442738;stroke-linecap:round;stroke-linejoin:round;stroke-miterlimit:4;stroke-dasharray:none;stroke-opacity:1;paint-order:markers stroke fill"
     d="M 0,5.0439453e-4 V 865.383 H 2502.4899 V 5.0439453e-4 Z M 288.46083,236.0139 H 2270.7275 V 632.4683 H 288.46083 Z"
     id="rect817"
     inkscape:connector-curvature="0" />
  <path
     style="display:none;opacity:1;fill:#000000;fill-opacity:1;stroke:none;stroke-width:3.33848882;stroke-linecap:round;stroke-linejoin:round;stroke-miterlimit:4;stroke-dasharray:none;stroke-opacity:1;paint-order:markers stroke fill"
     d="m 1709.0596,408.78786 a 53.62904,53.62904 0 0 0 -53.6294,53.6294 53.62904,53.62904 0 0 0 53.6294,53.62939 53.62904,53.62904 0 0 0 53.6298,-53.62939 53.62904,53.62904 0 0 0 -53.6298,-53.6294 z m 0,1.78835 a 51.841408,51.841408 0 0 1 51.841,51.84105 51.841408,51.841408 0 0 1 -39.3272,50.25577 v -50.25577 h -1.7883 v 50.65657 a 51.841408,51.841408 0 0 1 -10.7255,1.18447 51.841408,51.841408 0 0 1 -12.5134,-1.59992 v -50.24112 h -1.7884 v 49.7867 a 51.841408,51.841408 0 0 1 -37.5389,-49.7867 51.841408,51.841408 0 0 1 51.8407,-51.84105 z"
     id="path4529"
     inkscape:connector-curvature="0" />
  <path
     id="path868"
     style="fill:#000000;fill-opacity:1;stroke:#000000;stroke-width:0.26458332px;stroke-linecap:butt;stroke-linejoin:miter;stroke-opacity:1"
     d="m 1218.4562,116.17263 -40.037,40.03697 41.5337,41.53369 V 167.8091 h 107.0147 v 29.93419 l 40.037,-40.03698 -41.1595,-41.15951 v 28.81166 l -107.3895,-8e-5 z"
     inkscape:connector-curvature="0"
     sodipodi:nodetypes="ccccccccccc" />
</svg>
